<svg width="38" height="57" viewBox="0 0 38 57" fill="none" xmlns="http://www.w3.org/2000/svg">
<g id="Asset 5 3" clip-path="url(#clip0_101_76)">
<g id="Laag 1">
<g id="Group">
<g id="Group_2">
<path id="Vector" d="M26.6091 27.1624C23.775 27.1624 21.2727 28.2324 19.1751 30.4104C17.0769 32.5877 16.0464 35.2082 16.0464 38.1973V53.7519C16.0464 55.5452 17.4963 56.9992 19.2846 56.9992C21.0729 56.9992 22.5228 55.5452 22.5228 53.7519V38.1973C22.5228 37.1639 23.0019 36.3148 23.9588 35.6134C24.915 34.9493 25.9455 34.6172 27.0132 34.6172C28.0809 34.6172 29.0006 34.9493 29.9203 35.6507C30.8407 36.352 31.2826 37.2011 31.2826 38.1973V53.7519C31.2826 55.5452 32.7325 56.9992 34.5208 56.9992C36.3092 56.9992 37.7591 55.5452 37.7591 53.7519V38.1973C37.7591 35.1709 36.6184 32.5877 34.3729 30.4104C32.128 28.2324 29.5149 27.1624 26.6084 27.1624H26.6091Z" fill="black"/>
<path id="Vector_2" d="M11.4472 27.126C8.46582 27.3103 5.96283 28.4542 3.93894 30.4844C1.95155 32.5513 0.95752 35.1345 0.95752 38.1982V53.7528C0.95752 55.5461 2.40742 57.0001 4.19574 57.0001H4.23357C6.02189 57.0001 7.47179 55.5461 7.47179 53.7528V38.1982C7.47179 35.9836 9.38486 34.6547 11.4466 34.5443C11.8142 34.507 11.998 34.2854 11.998 33.9534V27.6796C11.998 27.3103 11.8135 27.126 11.4466 27.126H11.4472Z" fill="black"/>
</g>
<g id="Group_3">
<path id="Vector_3" d="M19.2853 18.3512C21.0736 18.3512 22.5235 16.8972 22.5235 15.1039V11.072C22.5235 10.0386 23.0026 9.18946 23.9595 8.48809C24.9157 7.82399 25.9462 7.49193 27.0139 7.49193C28.0816 7.49193 29.0013 7.82399 29.921 8.52536C30.8413 9.22673 31.2833 10.0758 31.2833 11.072V15.1039C31.2833 16.8972 32.7332 18.3512 34.5215 18.3512C36.3098 18.3512 37.7597 16.8972 37.7597 15.1039V11.072C37.7597 8.04558 36.6191 5.46235 34.3735 3.28504C32.1287 1.10707 29.5162 0.036377 26.6091 0.036377C23.702 0.036377 21.2727 1.1064 19.1751 3.28437C17.0769 5.46168 16.0464 8.08218 16.0464 11.0713V15.1032C16.0464 16.8966 17.4963 18.3505 19.2846 18.3505L19.2853 18.3512Z" fill="black"/>
<path id="Vector_4" d="M4.23357 18.3514C6.02189 18.3514 7.47179 16.8974 7.47179 15.1041V11.0722C7.47179 8.85763 9.38486 7.52875 11.4466 7.41829C11.8142 7.38103 11.998 7.15944 11.998 6.82738V0.553644C11.998 0.184326 11.8135 0 11.4466 0C8.46515 0.184326 5.96217 1.32821 3.93828 3.35846C1.95155 5.42531 0.95752 8.00853 0.95752 11.0722V15.1041C0.95752 16.8974 2.40742 18.3514 4.19574 18.3514H4.23357Z" fill="black"/>
</g>
</g>
</g>
</g>
<defs>
<clipPath id="clip0_101_76">
<rect width="36.8029" height="57" fill="white" transform="translate(0.95752)"/>
</clipPath>
</defs>
</svg>
